<svg xmlns="http://www.w3.org/2000/svg" width="288" height="94.56" viewBox="0 0 288 94.56"><defs><style>.a{fill:#193b62;}.b{fill:#278ac2;}</style></defs><g transform="translate(-45.47 -99.731)"><g transform="translate(45.47 99.731)"><path class="a" d="M45.47,251.253a13.707,13.707,0,0,1,4.053-9.748c2.828-2.9,5.744-5.7,8.577-8.6.709-.723.894-.543,1.285.276a13.385,13.385,0,0,0,21.6,3.856c4.3-4.188,8.523-8.462,12.737-12.74.754-.765,1.148-.921,2.012-.049,7.78,7.852,15.621,15.643,23.441,23.456,4.769,4.766,9.514,9.559,14.319,14.289.8.786.746,1.22-.035,1.929-1.288,1.17-2.515,2.411-3.691,3.692-.608.663-.956.551-1.535-.033q-8.052-8.1-16.152-16.161a2.907,2.907,0,0,0-2.754-1.142,2.611,2.611,0,0,0-1.379,4.387c1.17,1.285,2.442,2.477,3.673,3.707,4.278,4.278,8.54,8.572,12.855,12.812.71.7.7,1.075-.016,1.73-1.316,1.2-2.574,2.475-3.784,3.785-.6.65-.949.568-1.537-.022q-7.912-7.969-15.875-15.886a11.122,11.122,0,0,0-.842-.817,2.58,2.58,0,0,0-3.551.137,2.488,2.488,0,0,0-.107,3.535c.707.823,1.51,1.565,2.28,2.333,4.773,4.768,9.532,9.548,14.338,14.281.7.685.735,1.063,0,1.73-1.351,1.228-2.623,2.546-3.884,3.869-.493.516-.784.579-1.334.022q-6.923-7.015-13.905-13.971c-.767-.77-1.521-1.554-2.315-2.3-1.535-1.436-3.11-1.551-4.228-.346s-.948,2.615.542,4.1c5.325,5.322,10.635,10.661,16,15.946.767.756.7,1.159-.036,1.825-1.194,1.079-2.282,2.272-3.442,3.389a13.953,13.953,0,0,1-13.074,3.844c-.441-.088-1.11,0-1.253-.505-.118-.422.466-.679.768-.97a9.121,9.121,0,0,0,2.878-8.643,9.015,9.015,0,0,0-8.3-7.273c-.994-.038-1.178-.335-1.26-1.257a8.874,8.874,0,0,0-8.711-8.41c-.759-.049-.915-.291-.954-.992a8.883,8.883,0,0,0-8.707-8.674c-.737-.038-.937-.257-.981-.973a8.641,8.641,0,0,0-5.883-8.166,8.785,8.785,0,0,0-9.92,2.349c-.153.156-.324.294-.461.461-.627.77-.831.4-1.023-.324A14.187,14.187,0,0,1,45.47,251.253Z" transform="translate(-45.47 -204.146)"/><path class="a" d="M235.906,147a14.4,14.4,0,0,1-1.5,6.426c-.436.935-.742,1.134-1.6.274q-11.59-11.679-23.261-23.277-8.177-8.167-16.35-16.338c-2.077-2.075-3.126-2.063-5.24.054-4.925,4.924-9.832,9.866-14.792,14.755a7.742,7.742,0,0,1-8.314,1.952,7.974,7.974,0,0,1-5.536-6.372,1.916,1.916,0,0,1,.622-1.96c6.179-6.133,12.318-12.305,18.493-18.441a14.121,14.121,0,0,1,20.369-.006q16.46,16.41,32.883,32.858A13.92,13.92,0,0,1,235.906,147Z" transform="translate(-141.345 -99.731)"/><path class="a" d="M137.068,497.631c.039,1.738-.956,2.908-2.112,4.029-1.741,1.69-1.721,1.712-3.451-.016-1.356-1.353-2.68-2.737-4.078-4.043-.6-.565-.584-.923.019-1.441.724-.624,1.335-1.378,2.069-1.987a4.309,4.309,0,0,1,4.875-.68A4.461,4.461,0,0,1,137.068,497.631Z" transform="translate(-114.148 -431.1)"/><path class="a" d="M260.159,620.008a5.74,5.74,0,0,1-2.118,4.625c-1.721,1.661-1.705,1.68-3.4-.008-1.351-1.346-2.663-2.735-4.064-4.028-.668-.616-.59-.992.038-1.532.721-.62,1.324-1.381,2.063-1.979a4.6,4.6,0,0,1,7.482,2.922Z" transform="translate(-217.886 -534.695)"/><path class="a" d="M193.6,554.6a4.517,4.517,0,0,1,4.088,2.637,4.335,4.335,0,0,1-.534,4.782c-2.51,3.236-2.521,3.229-5.342.416-1.107-1.105-2.219-2.208-3.311-3.327-.244-.25-.792-.526-.357-.938,1.4-1.323,2.48-3.088,4.588-3.48C193.028,554.638,193.334,554.627,193.6,554.6Z" transform="translate(-165.539 -482.978)"/><path class="a" d="M75.876,436.186c.077,1.86-1.038,3.059-2.248,4.234-1.6,1.552-1.573,1.56-3.108-.008-1.37-1.4-2.743-2.793-4.162-4.141-.668-.635-.628-1.085.063-1.656s1.28-1.31,1.986-1.885a4.315,4.315,0,0,1,4.887-.6A4.406,4.406,0,0,1,75.876,436.186Z" transform="translate(-62.666 -379.372)"/></g><g transform="translate(149.569 115.542)"><path class="a" d="M706.626,223.875c0-7.391.025-14.782-.027-22.173-.008-1.143.187-1.57,1.461-1.554,7.106.088,14.215.009,21.321.126a18.609,18.609,0,0,1,9,2.43c5.21,2.974,7.367,7.668,7.456,13.488.1,6.818-2.1,12.409-8.463,15.739a22.514,22.514,0,0,1-10.241,2.206c-2.851.054-5.706.055-8.558-.013-.984-.024-1.208.3-1.2,1.227.049,3.719-.013,7.44.041,11.157.014.953-.252,1.242-1.212,1.222q-4.2-.09-8.413,0c-.987.022-1.192-.329-1.187-1.249C706.64,238.947,706.626,231.411,706.626,223.875Zm10.772-6.826c0,2.367.011,4.733-.008,7.1,0,.608.061,1.009.839.99,3.524-.083,7.064.22,10.569-.266,2.778-.386,5.053-1.653,6.177-4.395,2.333-5.694-1.016-10.99-7.161-11.257-3.088-.134-6.185-.043-9.276-.11-.871-.019-1.187.213-1.161,1.129C717.438,212.508,717.4,214.78,717.4,217.049Z" transform="translate(-706.599 -200.147)"/><path class="a" d="M1180.314,289.255c-3.917,0-7.836.057-11.754-.031-1.335-.03-1.269.428-.9,1.389,1.833,4.773,7.216,7.018,12.715,5.272a12.038,12.038,0,0,0,4.735-2.7c.532-.505.841-.546,1.359,0,1.356,1.444,2.743,2.861,4.177,4.226.609.581.691.91.036,1.557a20.229,20.229,0,0,1-13.855,5.711,21.133,21.133,0,0,1-10.83-2.093c-5.684-2.911-8.589-7.733-9.26-13.952-.958-8.892,2.855-16.864,11.354-19.991a22.349,22.349,0,0,1,13.543-.46,14.256,14.256,0,0,1,9.317,7.257c2.223,4.084,2.622,8.517,2.485,13.056-.03.983-.7.74-1.223.742C1188.247,289.261,1184.28,289.255,1180.314,289.255Zm-13.215-6.278q7.894,0,15.747,0c.438,0,.665-.055.643-.636a7.629,7.629,0,0,0-5.65-6.9C1172.444,274.167,1168.057,277.2,1167.1,282.977Z" transform="translate(-1085.737 -256.777)"/><path class="a" d="M1430.338,271.018q-4,10.69-8,21.378c-1.557,4.149-3.156,8.282-4.683,12.442-.323.879-.693,1.294-1.73,1.26-2.8-.09-5.61-.065-8.416-.009a1.326,1.326,0,0,1-1.5-.987q-6.587-17.438-13.212-34.859c-.066-.173-.112-.356-.252-.8,3.5,0,6.867.014,10.236-.009.866-.006.852.682,1.014,1.176q3.1,9.476,6.155,18.966c.624,1.926,1.246,3.85,1.886,5.835.624-.236.572-.847.713-1.285q3.791-11.682,7.511-23.385c.312-.99.716-1.365,1.784-1.326,2.8.1,5.607.076,8.41.1C1430.329,270.013,1430.694,270.5,1430.338,271.018Z" transform="translate(-1284.542 -258.506)"/><path class="b" d="M1632.127,270.969c.357-.521-.01-1-.077-1.5,3.23.115,6.461.112,9.685-.1.875-.057,1.249.25,1.523,1.112,2.444,7.676,4.947,15.335,7.435,23,.216.664.447,1.324.781,2.307,1.241-3.831,2.387-7.355,3.524-10.88,1.54-4.774,3.1-9.543,4.583-14.335a1.406,1.406,0,0,1,1.611-1.211c2.659.06,5.324.077,7.983,0,1.226-.038,1.2.368.841,1.312q-6.479,17.048-12.883,34.122a1.671,1.671,0,0,1-1.907,1.264c-2.659-.061-5.324-.076-7.983.006a1.661,1.661,0,0,1-1.856-1.332q-6.136-16.252-12.36-32.468C1632.841,271.774,1632.94,271.037,1632.127,270.969Z" transform="translate(-1486.331 -258.458)"/><path class="a" d="M1007.938,273.653a13.386,13.386,0,0,1,8.352-6.292c3.741-.918,3.735-.945,3.735,2.814,0,1.836-.052,3.675.022,5.508.036.929-.274,1.165-1.154,1.082a11.579,11.579,0,0,0-3.883.373,8.874,8.874,0,0,0-7.067,9.041c-.017,5.461-.035,10.923.022,16.383.011,1.068-.225,1.411-1.343,1.375-2.707-.088-5.418-.052-8.126-.014-.792.011-1.094-.187-1.093-1.042q.038-17.253,0-34.507c0-.932.329-1.123,1.176-1.108,2.757.046,5.516.057,8.271,0,.932-.02,1.143.3,1.109,1.159C1007.893,270.035,1007.938,271.655,1007.938,273.653Z" transform="translate(-951.611 -256.345)"/><path class="b" d="M1448.267,561.238a6.816,6.816,0,0,1-6.73,1.09,3.712,3.712,0,0,1-2.623-3.614,3.579,3.579,0,0,1,2.793-3.453,15.37,15.37,0,0,1,5.325-.381c1.168.039,1.326-.5,1.1-1.4a2.8,2.8,0,0,0-2.551-2.223,6.6,6.6,0,0,0-4.469.856c-.576.358-.935.372-1.224-.307-.234-.553-.8-1.082.117-1.548,2.669-1.364,5.41-1.847,8.213-.494,2.024.976,2.42,2.891,2.463,4.894.047,2.174.036,4.35-.008,6.525-.011.521.412,1.384-.674,1.412C1449.163,562.611,1448.13,562.9,1448.267,561.238Zm-2.789-4.543,0-.055a23.668,23.668,0,0,0-2.595.219,1.646,1.646,0,0,0-1.445,1.427,1.925,1.925,0,0,0,.686,1.94c1.6,1.271,4.979.545,5.875-1.269.706-1.427.208-2.256-1.357-2.261Z" transform="translate(-1323.605 -494.033)"/><path class="b" d="M1615.548,549.149a11.316,11.316,0,0,1,3.622.748c.535.219,1.187.394.669,1.211-.35.551-.414,1.452-1.5.835a6.578,6.578,0,0,0-4.242-.508c-.929.126-1.85.43-1.921,1.6-.068,1.13.79,1.466,1.656,1.682,1.263.315,2.56.5,3.813.841,2.038.561,2.929,1.584,2.971,3.234a3.659,3.659,0,0,1-2.9,3.677,10.228,10.228,0,0,1-7.469-.556c-.661-.3-1.057-.609-.562-1.387.365-.575.52-1.209,1.475-.669a8.038,8.038,0,0,0,4.917.857c1.012-.11,2.014-.428,2.1-1.6s-.893-1.461-1.829-1.656c-1.227-.257-2.472-.444-3.677-.779-1.952-.542-2.883-1.619-2.984-3.269a3.847,3.847,0,0,1,2.692-3.727A8.2,8.2,0,0,1,1615.548,549.149Z" transform="translate(-1467.299 -494.197)"/><path class="b" d="M1536.977,549.14a11.387,11.387,0,0,1,3.522.732c.554.228,1.186.411.691,1.2-.332.532-.381,1.5-1.493.864a6.62,6.62,0,0,0-4.245-.52c-.951.12-1.864.48-1.942,1.6-.074,1.087.775,1.479,1.663,1.69,1.268.3,2.563.5,3.822.83,1.973.523,2.858,1.5,2.941,3.105a3.5,3.5,0,0,1-2.606,3.732,10.237,10.237,0,0,1-7.885-.539c-.855-.389-.622-.907-.312-1.523.3-.6.564-.909,1.312-.5a8.287,8.287,0,0,0,5.062.879c.943-.113,1.9-.392,2.016-1.518.116-1.186-.816-1.515-1.762-1.719-1.272-.277-2.568-.468-3.817-.823-1.932-.55-2.776-1.57-2.837-3.2a3.636,3.636,0,0,1,2.595-3.762A8.655,8.655,0,0,1,1536.977,549.14Z" transform="translate(-1401.068 -494.189)"/><path class="b" d="M1738.027,549.165a11.784,11.784,0,0,1,3.735.82c.672.279.77.668.37,1.219-.312.428-.286,1.365-1.272.814a6.918,6.918,0,0,0-4.239-.6c-1,.107-2,.419-2.1,1.609-.1,1.173.858,1.523,1.778,1.745,1.22.294,2.47.468,3.683.787,1.975.52,2.871,1.5,2.959,3.089a3.5,3.5,0,0,1-2.589,3.743,10.222,10.222,0,0,1-7.885-.523c-.844-.38-.665-.888-.337-1.513.3-.573.534-.946,1.3-.524a8.282,8.282,0,0,0,5.061.888c.943-.112,1.905-.383,2.031-1.5.134-1.187-.794-1.527-1.742-1.734-1.272-.277-2.568-.469-3.817-.823-1.94-.549-2.789-1.56-2.855-3.184a3.636,3.636,0,0,1,2.576-3.773A8.521,8.521,0,0,1,1738.027,549.165Z" transform="translate(-1570.423 -494.209)"/><path class="b" d="M1810.365,540.308c0-.772-.025-1.545.006-2.315.045-1.148.183-2.266-1.617-1.978-.846.135-.6-.666-.646-1.145-.053-.556.105-1.017.77-.907,1.422.233,1.636-.546,1.488-1.672-.123-.935.132-1.383,1.223-1.373,1.041.008,1.434.359,1.255,1.338-.337,1.841.836,1.713,2.071,1.727.652.008,1.762-.6,1.789.9.016.841-.181,1.179-1.113,1.19-2.741.031-2.74.076-2.74,2.836,0,1.351-.014,2.7,0,4.051.028,2.1,1.047,2.949,3.059,2.312.989-.313,1.153.117,1.422.789.362.9-.389.953-.874,1.141-3.349,1.305-6.062-.546-6.1-4.144C1810.359,542.141,1810.365,541.225,1810.365,540.308Z" transform="translate(-1634.66 -478.837)"/><path class="b" d="M1700.684,557.085c0,1.929-.047,3.861.019,5.788.034.982-.517.948-1.183.929-.624-.017-1.241.129-1.23-.89q.064-5.787,0-11.576c-.014-1.118.687-.886,1.337-.946.814-.076,1.1.225,1.072,1.052C1700.647,553.322,1700.684,555.2,1700.684,557.085Z" transform="translate(-1542.14 -495.232)"/><path class="b" d="M1697.081,517.271c-.954-.139-1.646-.636-1.595-1.677a1.515,1.515,0,0,1,1.636-1.505,1.472,1.472,0,0,1,1.619,1.507A1.575,1.575,0,0,1,1697.081,517.271Z" transform="translate(-1539.777 -464.656)"/></g></g></svg>